<mxfile host="app.diagrams.net" modified="2023-12-18T18:32:06.846Z" agent="Mozilla/5.0 (Windows NT 10.0; Win64; x64) AppleWebKit/537.36 (KHTML, like Gecko) Chrome/120.0.0.0 Safari/537.36" etag="VjPGQIFbxGHb6BndL9Lj" version="22.1.11" type="device">
  <diagram name="Page-1" id="59pC2PIcaQA0ov2nVUa-">
    <mxGraphModel dx="1044" dy="518" grid="1" gridSize="10" guides="1" tooltips="1" connect="1" arrows="1" fold="1" page="1" pageScale="1" pageWidth="850" pageHeight="1100" math="0" shadow="0">
      <root>
        <mxCell id="0" />
        <mxCell id="1" parent="0" />
        <mxCell id="PrZYqwjOb4ufxfdfJCNt-29" style="edgeStyle=orthogonalEdgeStyle;rounded=0;orthogonalLoop=1;jettySize=auto;html=1;exitX=0.5;exitY=1;exitDx=0;exitDy=0;entryX=0.5;entryY=0;entryDx=0;entryDy=0;" parent="1" source="PrZYqwjOb4ufxfdfJCNt-1" target="PrZYqwjOb4ufxfdfJCNt-2" edge="1">
          <mxGeometry relative="1" as="geometry" />
        </mxCell>
        <mxCell id="PrZYqwjOb4ufxfdfJCNt-1" value="Get encoder values" style="rounded=1;whiteSpace=wrap;html=1;arcSize=50;" parent="1" vertex="1">
          <mxGeometry x="60" y="30" width="100" height="40" as="geometry" />
        </mxCell>
        <mxCell id="PrZYqwjOb4ufxfdfJCNt-30" style="edgeStyle=orthogonalEdgeStyle;rounded=0;orthogonalLoop=1;jettySize=auto;html=1;exitX=0.5;exitY=1;exitDx=0;exitDy=0;entryX=0.5;entryY=0;entryDx=0;entryDy=0;" parent="1" source="PrZYqwjOb4ufxfdfJCNt-2" target="PrZYqwjOb4ufxfdfJCNt-5" edge="1">
          <mxGeometry relative="1" as="geometry" />
        </mxCell>
        <mxCell id="PrZYqwjOb4ufxfdfJCNt-2" value="Get left encoder value" style="shape=process;whiteSpace=wrap;html=1;backgroundOutline=1;" parent="1" vertex="1">
          <mxGeometry x="60" y="90" width="100" height="40" as="geometry" />
        </mxCell>
        <mxCell id="PrZYqwjOb4ufxfdfJCNt-32" style="edgeStyle=orthogonalEdgeStyle;rounded=0;orthogonalLoop=1;jettySize=auto;html=1;exitX=0.5;exitY=1;exitDx=0;exitDy=0;entryX=0.5;entryY=0;entryDx=0;entryDy=0;" parent="1" source="PrZYqwjOb4ufxfdfJCNt-5" target="PrZYqwjOb4ufxfdfJCNt-31" edge="1">
          <mxGeometry relative="1" as="geometry" />
        </mxCell>
        <mxCell id="PrZYqwjOb4ufxfdfJCNt-5" value="Get right encoder value" style="shape=process;whiteSpace=wrap;html=1;backgroundOutline=1;" parent="1" vertex="1">
          <mxGeometry x="60" y="150" width="100" height="40" as="geometry" />
        </mxCell>
        <mxCell id="PrZYqwjOb4ufxfdfJCNt-9" value="" style="edgeStyle=orthogonalEdgeStyle;rounded=0;orthogonalLoop=1;jettySize=auto;html=1;" parent="1" source="PrZYqwjOb4ufxfdfJCNt-7" target="PrZYqwjOb4ufxfdfJCNt-8" edge="1">
          <mxGeometry relative="1" as="geometry" />
        </mxCell>
        <mxCell id="PrZYqwjOb4ufxfdfJCNt-7" value="Get left encoder value" style="rounded=1;whiteSpace=wrap;html=1;arcSize=50;" parent="1" vertex="1">
          <mxGeometry x="202.5" y="30" width="115" height="40" as="geometry" />
        </mxCell>
        <mxCell id="PrZYqwjOb4ufxfdfJCNt-11" value="" style="edgeStyle=orthogonalEdgeStyle;rounded=0;orthogonalLoop=1;jettySize=auto;html=1;" parent="1" source="PrZYqwjOb4ufxfdfJCNt-8" target="PrZYqwjOb4ufxfdfJCNt-10" edge="1">
          <mxGeometry relative="1" as="geometry" />
        </mxCell>
        <mxCell id="PrZYqwjOb4ufxfdfJCNt-8" value="Set left encoder value to the absolute value of the left encoder value" style="whiteSpace=wrap;html=1;" parent="1" vertex="1">
          <mxGeometry x="180" y="90" width="160" height="60" as="geometry" />
        </mxCell>
        <mxCell id="PrZYqwjOb4ufxfdfJCNt-13" value="" style="edgeStyle=orthogonalEdgeStyle;rounded=0;orthogonalLoop=1;jettySize=auto;html=1;" parent="1" source="PrZYqwjOb4ufxfdfJCNt-10" target="PrZYqwjOb4ufxfdfJCNt-12" edge="1">
          <mxGeometry relative="1" as="geometry" />
        </mxCell>
        <mxCell id="PrZYqwjOb4ufxfdfJCNt-10" value="Adjust the gotten encoder value" style="whiteSpace=wrap;html=1;" parent="1" vertex="1">
          <mxGeometry x="210" y="170" width="100" height="40" as="geometry" />
        </mxCell>
        <mxCell id="PrZYqwjOb4ufxfdfJCNt-12" value="Return" style="ellipse;whiteSpace=wrap;html=1;" parent="1" vertex="1">
          <mxGeometry x="230" y="230" width="60" height="60" as="geometry" />
        </mxCell>
        <mxCell id="PrZYqwjOb4ufxfdfJCNt-14" value="" style="edgeStyle=orthogonalEdgeStyle;rounded=0;orthogonalLoop=1;jettySize=auto;html=1;" parent="1" source="PrZYqwjOb4ufxfdfJCNt-15" target="PrZYqwjOb4ufxfdfJCNt-17" edge="1">
          <mxGeometry relative="1" as="geometry" />
        </mxCell>
        <mxCell id="PrZYqwjOb4ufxfdfJCNt-15" value="Get right encoder value" style="rounded=1;whiteSpace=wrap;html=1;arcSize=50;" parent="1" vertex="1">
          <mxGeometry x="380" y="30" width="120" height="40" as="geometry" />
        </mxCell>
        <mxCell id="PrZYqwjOb4ufxfdfJCNt-16" value="" style="edgeStyle=orthogonalEdgeStyle;rounded=0;orthogonalLoop=1;jettySize=auto;html=1;" parent="1" source="PrZYqwjOb4ufxfdfJCNt-17" target="PrZYqwjOb4ufxfdfJCNt-19" edge="1">
          <mxGeometry relative="1" as="geometry" />
        </mxCell>
        <mxCell id="PrZYqwjOb4ufxfdfJCNt-17" value="Set right encoder value to the absolute value of the right&amp;nbsp;encoder value" style="whiteSpace=wrap;html=1;" parent="1" vertex="1">
          <mxGeometry x="360" y="90" width="160" height="60" as="geometry" />
        </mxCell>
        <mxCell id="PrZYqwjOb4ufxfdfJCNt-18" value="" style="edgeStyle=orthogonalEdgeStyle;rounded=0;orthogonalLoop=1;jettySize=auto;html=1;" parent="1" source="PrZYqwjOb4ufxfdfJCNt-19" target="PrZYqwjOb4ufxfdfJCNt-20" edge="1">
          <mxGeometry relative="1" as="geometry" />
        </mxCell>
        <mxCell id="PrZYqwjOb4ufxfdfJCNt-19" value="Adjust the gotten encoder value" style="whiteSpace=wrap;html=1;" parent="1" vertex="1">
          <mxGeometry x="390" y="170" width="100" height="40" as="geometry" />
        </mxCell>
        <mxCell id="PrZYqwjOb4ufxfdfJCNt-20" value="Return" style="ellipse;whiteSpace=wrap;html=1;" parent="1" vertex="1">
          <mxGeometry x="410" y="230" width="60" height="60" as="geometry" />
        </mxCell>
        <mxCell id="PrZYqwjOb4ufxfdfJCNt-23" style="edgeStyle=orthogonalEdgeStyle;rounded=0;orthogonalLoop=1;jettySize=auto;html=1;exitX=0.5;exitY=1;exitDx=0;exitDy=0;entryX=0.5;entryY=0;entryDx=0;entryDy=0;" parent="1" source="PrZYqwjOb4ufxfdfJCNt-21" target="PrZYqwjOb4ufxfdfJCNt-22" edge="1">
          <mxGeometry relative="1" as="geometry" />
        </mxCell>
        <mxCell id="PrZYqwjOb4ufxfdfJCNt-21" value="Reset encoders" style="rounded=1;whiteSpace=wrap;html=1;arcSize=50;" parent="1" vertex="1">
          <mxGeometry x="545" y="30" width="110" height="40" as="geometry" />
        </mxCell>
        <mxCell id="PrZYqwjOb4ufxfdfJCNt-27" value="" style="edgeStyle=orthogonalEdgeStyle;rounded=0;orthogonalLoop=1;jettySize=auto;html=1;entryX=0.5;entryY=0;entryDx=0;entryDy=0;" parent="1" source="PrZYqwjOb4ufxfdfJCNt-22" target="PrZYqwjOb4ufxfdfJCNt-28" edge="1">
          <mxGeometry relative="1" as="geometry">
            <mxPoint x="600" y="175" as="targetPoint" />
          </mxGeometry>
        </mxCell>
        <mxCell id="PrZYqwjOb4ufxfdfJCNt-22" value="Reset both encoders&amp;nbsp;" style="rounded=0;whiteSpace=wrap;html=1;" parent="1" vertex="1">
          <mxGeometry x="540" y="90" width="120" height="30" as="geometry" />
        </mxCell>
        <mxCell id="PrZYqwjOb4ufxfdfJCNt-28" value="Return" style="ellipse;whiteSpace=wrap;html=1;" parent="1" vertex="1">
          <mxGeometry x="570" y="140" width="60" height="60" as="geometry" />
        </mxCell>
        <mxCell id="PrZYqwjOb4ufxfdfJCNt-31" value="Return" style="ellipse;whiteSpace=wrap;html=1;" parent="1" vertex="1">
          <mxGeometry x="80" y="210" width="60" height="60" as="geometry" />
        </mxCell>
      </root>
    </mxGraphModel>
  </diagram>
</mxfile>
